# xmcd CD database file
#
# Track frame offsets:
#	150
#	12701
#	26667
#	39785
#	51931
#	62262
#	74606
#	88713
#	98919
#	108558
#	118775
#	129104
#	139709
#	149992
#	161837
#	174977
#	186962
#	198385
#	208925
#	220644
#
# Disc length: 3109 seconds
#
# Revision: 5
# Processed by: cddbd v1.5.2PL0 Copyright (c) Steve Scherf et al.
# Submitted via: CDex 1.70beta2
#
DISCID=2e0c2314
DTITLE=Various Artist - The Best Of Boogie Woogie - CD 9
DYEAR=2003
DGENRE=Blues
TTITLE0=Big Joe Turner - Rocket Boogie
TTITLE1=Johnny Griffin - Chuck A Boogie
TTITLE2=Curley Williams - Georgia Boogie Woogie
TTITLE3=Jimmy Liggins - Mississippi Boogie
TTITLE4=Lightnin' Hopkins - Lightnin' Boogie
TTITLE5=Roy Milton - Boogie Woogie Baby
TTITLE6=Johnny Griffin - Marchin' Boogie
TTITLE7=Sam Price - Eiffel Tower Boogie
TTITLE8=Madonna Martin - Rattlesnakin' Boogie
TTITLE9=Champion Jack Dupree - Rub a Little With a Boogie
TTITLE10=Donald Byrd - Professon Longhair's Boogie
TTITLE11=Art Tatum - Tatum Pole Boogie
TTITLE12=Lil Armstrong - Rock It
TTITLE13=Camille Howard - When I Grew Too Old
TTITLE14=Freddie Mitchell - On The Fishmarket
TTITLE15=Marylin Scott - Beer Bottle Boogie
TTITLE16=Billy Wright - Married Woman's Boogie
TTITLE17=Freddie Slack - Beatin' With Chopsticks
TTITLE18=Lucky Millinder - Bongo Boogie
TTITLE19=Tab Smith - Joogie Boogie
EXTD=YEAR: 2003
EXTT0=(Turner)
EXTT1=(Morris)
EXTT2=(Williams)
EXTT3=(Liggins)
EXTT4=(Hopkins)
EXTT5=(Milton)
EXTT6=(Morris)
EXTT7=(Price)
EXTT8=(Martin)
EXTT9=(Dupree)
EXTT10=(Byrd)
EXTT11=(Tatum)
EXTT12=(Armstrong)
EXTT13=(Howard)
EXTT14=(Mitchell/Newton)
EXTT15=(Scott)
EXTT16=(Wright)
EXTT17=(Slack)
EXTT18=(Glover/Nix)
EXTT19=(Smith)
PLAYORDER=
